<svg xmlns="http://www.w3.org/2000/svg" viewBox="0 0 128.028 128.028"><defs><style>.a{fill:#4f4fd9;}</style></defs><g transform="translate(16.374 36.405)"><path class="a" d="M107.308,183.564a2.736,2.736,0,0,0-2.435-1.461h-8.2V152.042a2.67,2.67,0,0,0-2.691-2.742H77.58a2.745,2.745,0,0,0-2.742,2.742V182.1h-8.2a2.765,2.765,0,0,0-2.435,1.461,2.722,2.722,0,0,0,.179,2.819l19.144,27.344a2.725,2.725,0,0,0,2.23,1.179,2.691,2.691,0,0,0,2.23-1.179l19.144-27.344A2.671,2.671,0,0,0,107.308,183.564Z" transform="translate(-63.894 -149.3)"/></g><g transform="translate(63.358 42.638)"><path class="a" d="M291.545,170.7h-32.8a2.742,2.742,0,1,0,0,5.484h32.8a2.742,2.742,0,0,0,0-5.484Z" transform="translate(-256 -170.7)"/></g><g transform="translate(63.358 58.624)"><path class="a" d="M291.545,234.7h-32.8a2.742,2.742,0,1,0,0,5.484h32.8a2.742,2.742,0,0,0,0-5.484Z" transform="translate(-256 -234.7)"/></g><g transform="translate(67.881 67.881)"><path class="a" d="M335.371,299.263l-5.228-1.307,2.768-4.638a2.712,2.712,0,0,0-.41-3.332l-7.739-7.739a2.72,2.72,0,0,0-3.331-.41l-4.639,2.768-1.307-5.228a2.74,2.74,0,0,0-2.64-2.076H301.9a2.69,2.69,0,0,0-2.64,2.076l-1.307,5.228-4.638-2.768a2.712,2.712,0,0,0-3.332.41l-7.739,7.739a2.716,2.716,0,0,0-.41,3.332l2.768,4.638-5.228,1.307a2.74,2.74,0,0,0-2.076,2.64v10.943a2.69,2.69,0,0,0,2.076,2.64l5.228,1.307-2.768,4.639a2.712,2.712,0,0,0,.41,3.331l7.739,7.74a2.752,2.752,0,0,0,3.332.41l4.638-2.768,1.307,5.228a2.739,2.739,0,0,0,2.64,2.076h10.943a2.69,2.69,0,0,0,2.64-2.076l1.307-5.228,4.639,2.768a2.712,2.712,0,0,0,3.331-.41l7.74-7.739a2.716,2.716,0,0,0,.41-3.331l-2.768-4.639,5.228-1.307a2.74,2.74,0,0,0,2.076-2.64V301.9A2.712,2.712,0,0,0,335.371,299.263Zm-27.985,21.783a13.659,13.659,0,1,1,13.659-13.659A13.671,13.671,0,0,1,307.386,321.046Z" transform="translate(-277.3 -277.3)"/></g><g transform="translate(0 0)"><path class="a" d="M106.432,0h-95.8A10.642,10.642,0,0,0,0,10.653v95.8a10.664,10.664,0,0,0,10.653,10.653H65.291a2.8,2.8,0,0,0,1.971-.848,2.719,2.719,0,0,0,.7-2.021,7.613,7.613,0,0,1,.025-1.7,2.662,2.662,0,0,0-1-2.42,8.075,8.075,0,0,1-2-2.345,2.64,2.64,0,0,0-2.3-1.322H10.653V26.621h95.8V62.7a2.64,2.64,0,0,0,1.322,2.3,8.283,8.283,0,0,1,2.32,1.946c2.42,2.47,5.589.823,6.137.324a2.659,2.659,0,0,0,.848-1.971V10.653A10.664,10.664,0,0,0,106.432,0ZM13.3,15.967a2.657,2.657,0,1,1,2.67-2.645A2.673,2.673,0,0,1,13.3,15.967Zm10.653.025a2.67,2.67,0,1,1,2.67-2.67A2.673,2.673,0,0,1,23.951,15.992Zm10.653,0a2.694,2.694,0,0,1-2.67-2.694,2.67,2.67,0,1,1,2.67,2.694Z" transform="translate(0 0)"/></g></svg>