<svg xmlns="http://www.w3.org/2000/svg" viewBox="0 0 128.25 128.25"><defs><style>.a{fill:#7247d7;}</style></defs><g transform="translate(0 0)"><path class="a" d="M114.259,0a13.989,13.989,0,0,0-12.3,20.66L79.042,43.579a18.531,18.531,0,0,0-22.84,0L38.319,25.694a9.2,9.2,0,0,0,1.322-4.708,9.327,9.327,0,1,0-9.327,9.327,9.2,9.2,0,0,0,4.708-1.322L52.9,46.874a18.535,18.535,0,0,0,0,22.84L23.374,99.247a13.849,13.849,0,1,0,2.915,3.68L56.2,73.012a18.545,18.545,0,0,0,9.089,3.775v23.691a13.991,13.991,0,1,0,4.664,0V76.787a18.545,18.545,0,0,0,9.089-3.775L96.929,90.894A9.2,9.2,0,0,0,95.6,95.6a9.327,9.327,0,1,0,9.327-9.327,9.2,9.2,0,0,0-4.708,1.322L82.341,69.717a18.535,18.535,0,0,0,0-22.84L104.878,24.34A13.981,13.981,0,1,0,114.259,0ZM25.65,20.986a4.664,4.664,0,1,1,4.664,4.664A4.668,4.668,0,0,1,25.65,20.986ZM13.991,118.923a9.327,9.327,0,1,1,9.327-9.327A9.337,9.337,0,0,1,13.991,118.923Zm62.959-4.664a9.327,9.327,0,1,1-9.327-9.327A9.337,9.337,0,0,1,76.95,114.259ZM67.623,72.286A13.991,13.991,0,1,1,81.614,58.3,14,14,0,0,1,67.623,72.286ZM109.6,95.6a4.664,4.664,0,1,1-4.664-4.664A4.668,4.668,0,0,1,109.6,95.6Zm4.664-72.286a9.327,9.327,0,1,1,9.327-9.327A9.337,9.337,0,0,1,114.259,23.318Z"/><ellipse class="a" cx="16.747" cy="16.17" rx="16.747" ry="16.17" transform="translate(50.671 42.168)"/><circle class="a" cx="11.55" cy="11.55" r="11.55" transform="translate(101.257 3.893)"/><circle class="a" cx="8.085" cy="8.085" r="8.085" transform="translate(23.356 15.443)"/><circle class="a" cx="13.86" cy="13.86" r="13.86" transform="translate(54.086 99.375)"/><circle class="a" cx="11.55" cy="11.55" r="11.55" transform="translate(3.465 95.91)"/><circle class="a" cx="8.085" cy="8.085" r="8.085" transform="translate(96.637 86.693)"/></g></svg>