<svg xmlns="http://www.w3.org/2000/svg" xmlns:xlink="http://www.w3.org/1999/xlink" viewBox="0 0 1919.018 1645.286"><defs><style>.a{fill:url(#a);}.b{fill:url(#b);}.c{fill:#452cc5;}.c,.d,.e{font-size:233px;font-family:HelveticaNeueCyr-Bold, HelveticaNeueCyr;font-weight:700;letter-spacing:0.08em;opacity:0.05;}.d{fill:#fff;}.e{fill:#4a14c0;}</style><linearGradient id="a" x1="0.5" x2="0.5" y2="1" gradientUnits="objectBoundingBox"><stop offset="0" stop-color="#4f00bc"/><stop offset="1" stop-color="#29abe2"/></linearGradient><linearGradient id="b" x1="-0.304" y1="0.832" x2="0.867" y2="0.418" xlink:href="#a"/></defs><g transform="translate(-1 -1162)"><path class="a" d="M1983.911,1503.351c-12.71-12.217-120.7-40.921-216.175-36.32-142.914,7.734-316.76,72.908-414.131,220.721s-94.142,275.6,85.584,440.47c154.922,142.115,376.733-35.736,376.733-35.736s30.251-25.619,56.032-27.23c31.017-1.611,112.066,34.923,112.066,34.923V1803.608S1983.989,1540.644,1983.911,1503.351Z" transform="translate(-64.002 624)"/><path class="b" d="M-138,1443.744s148.752-19.47,267.252,15.513-9.112,162.18,198.919,98.9,70.945,171.375,86.384,192.989c18.238,25.731-30.645,195.111-149.554,240.994s-51.965,107.047-162.965,130.036S-138,2136.372-138,2136.372Z" transform="translate(139 285.174)"/><g transform="translate(375.267 1156)"><text class="c" transform="translate(305.733 684)"><tspan x="-84.113" y="0">Л</tspan></text><text class="c" transform="translate(1013.733 172)"><tspan x="-77.705" y="0">У</tspan></text><text class="c" transform="translate(768.733 794)"><tspan x="-77.705" y="0">У</tspan></text><text class="c" transform="translate(610.733 1158)"><tspan x="-66.871" y="0">Г</tspan></text><text class="d" transform="translate(1088 710)"><tspan x="-105.665" y="0">Ы</tspan></text><text class="e" transform="translate(96 249)"><tspan x="-86.326" y="0">C</tspan></text><text class="c" transform="translate(785.733 1371)"><tspan x="-86.326" y="0">И</tspan></text></g></g></svg>