<svg xmlns="http://www.w3.org/2000/svg" xmlns:xlink="http://www.w3.org/1999/xlink" viewBox="0 0 1920.162 968.705"><defs><style>.a{fill:url(#a);}.b,.c,.d,.e,.f{fill:#fff;font-family:HelveticaNeueCyr-Bold, HelveticaNeueCyr;font-weight:700;letter-spacing:0.08em;}.b{font-size:233px;opacity:0.05;}.c{font-size:268px;opacity:0.06;}.d{font-size:226px;}.d,.e,.f{opacity:0.07;}.e{font-size:340px;}.f{font-size:456px;}</style><linearGradient id="a" x1="0.5" x2="0.5" y2="1" gradientUnits="objectBoundingBox"><stop offset="0" stop-color="#4f00bc"/><stop offset="1" stop-color="#29abe2"/></linearGradient></defs><path class="a" d="M0,1203.238H1920s.368,617.534,0,801.849-112.668,7.374-211.713,53.769-71.32,75.837-196.286,96.868-82.82-153.995-318.64-52.951-430.814-76.274-644.945-59.213-135.106,140.2-211.581,127.458-74.053-21.022-145.3-68.246S-.351,2151.6,0,1942.071,0,1203.238,0,1203.238Z" transform="translate(0.001 -1203.238)"/><g transform="translate(0 3)"><text class="b" transform="translate(379 328)"><tspan x="-71.182" y="0">T</tspan></text><text class="c" transform="translate(1040 401)"><tspan x="-96.748" y="0">R</tspan></text><text class="d" transform="translate(1120 709)"><tspan x="-79.552" y="0">B</tspan></text><text class="e" transform="translate(597 748)"><tspan x="-125.97" y="0">U</tspan></text><text class="f" transform="translate(1459 870)"><tspan x="-177.384" y="0">O</tspan></text></g></svg>