<svg id="Слой_1" data-name="Слой 1" xmlns="http://www.w3.org/2000/svg" viewBox="0 0 1451.53 488.01"><defs><style>.cls-1{fill:#fff;}</style></defs><title>Logo_Turbolanding_up</title><path class="cls-1" d="M368.27,301.08,325.94,301c-9.67,0-13.58-4.83-12-14.7l1.74-10.66c1.61-9.87,7.1-14.66,16.77-14.64l130.38.27c9.66,0,13.58,4.83,12,14.7l-1.74,10.67c-1.62,9.86-7.1,14.65-16.77,14.63L414,301.18l-22.22,136c-1.61,9.87-7.1,14.66-16.77,14.64l-17,0c-9.67,0-13.59-4.83-12-14.7Z" transform="translate(-29.91 -109.58)"/><path class="cls-1" d="M480.81,275.59c1.61-9.87,7.1-14.66,16.77-14.64l17,0c9.67,0,13.59,4.83,12,14.69l-17.3,105.87c-3.18,19.47,7.53,30.69,27.39,30.74s34.23-11.14,37.41-30.6l17.3-105.87c1.61-9.87,7.1-14.66,16.77-14.64l17,0c9.67,0,13.59,4.83,12,14.69l-17.3,105.87c-3.53,21.6-13.5,39.45-30.09,53S553.16,455,529.91,455c-23.51-.05-41.5-6.75-53.65-20.38S460,403.06,463.51,381.46Z" transform="translate(-29.91 -109.58)"/><path class="cls-1" d="M645.85,275.59c1.61-9.86,7.1-14.65,16.77-14.63l50.68.1c16.46,0,28.48,1.66,35.58,4.61,20.29,8.58,29.91,28.07,25.43,55.54-3.49,21.33-17.17,42.65-36.46,51.94l-.08.54A75.49,75.49,0,0,1,743,385.17l18.63,49.12c3.87,9.88-1.57,17.6-12.81,17.58l-19.85,0c-7.58,0-12.5-3.5-15.29-10.44l-18.89-53.92-21.42-.05L665.21,437c-1.61,9.87-7.1,14.66-16.77,14.64l-17,0c-9.67,0-13.58-4.83-12-14.69Zm34,71.83,19.86,0c14.89,0,25.17-8.48,27.61-23.41,1.7-10.4-.83-17.34-7.66-20.29-3.62-1.88-9.23-2.69-16.81-2.71l-15.42,0Z" transform="translate(-29.91 -109.58)"/><path class="cls-1" d="M795.59,275.59c1.61-9.86,7.1-14.65,16.77-14.63l54.34.11c38.41.08,60.57,18,55.34,50-2.65,16.27-13.37,32.25-28.3,40.49l-.09.53c18.85,6.18,25.34,24.06,22.25,43-3.18,19.47-12.29,33.59-27.14,42.9s-32.57,13.8-53.21,13.76l-54.35-.12c-9.66,0-13.58-4.83-12-14.69Zm23.5,136.1,27.44.06c12.54,0,21.25-8.5,23.12-20s-3.61-19.48-16.41-19.51l-27.7-.06Zm12.55-76.8,23.52.05c10.71,0,17.72-7.7,19.33-17.57,1.57-9.6-3.09-16.28-14.58-16.3L837.17,301Z" transform="translate(-29.91 -109.58)"/><path class="cls-1" d="M962.1,285.7c21.33-18.63,46.37-27.91,74.85-27.85s50.47,9.44,65.71,28.15c15.28,18.43,20.64,41.65,16.11,69.38q-7,42.81-39.07,71.15c-21.38,18.89-46.47,28.44-75,28.38s-50.42-9.7-65.62-28.68-20.46-42.72-15.8-71.25C927.86,327.25,940.8,304.06,962.1,285.7Zm16,110.21c7.88,10.95,19,16.31,33.65,16.34s27.53-5.28,38.72-16.19c11.45-10.92,18.38-24.51,21-40.77,2.57-15.74,0-28.55-8-39-7.71-10.42-18.86-15.78-33.49-15.81s-27.52,5.28-38.89,15.66c-11.1,10.38-17.9,23.17-20.47,38.91Q966.65,379.47,978.07,395.91Z" transform="translate(-29.91 -109.58)"/><path class="cls-1" d="M839.68,133.09c111.5-5.45,213.21-11.23,294.49,13.26,34.31,10.21,51,21.43,58.81,31,2,3.74,2.86,10.2-3.26,18.71-9,12.92-83.74,55.11-83.74,55.11l9.81,9.86s65.35-41.16,82.5-62.93a3.16,3.16,0,0,0-.41,1.36,72.23,72.23,0,0,0,5.72-8.5,36.38,36.38,0,0,0,6.13-18h-.82c-.41-52-153.57-72.46-372.91-59.53C710.2,120.84,575.41,144,470.85,169.14a1789.8,1789.8,0,0,0-183.8,53.75L303,239.56C429.19,183.77,728.17,138.53,839.68,133.09Z" transform="translate(-29.91 -109.58)"/><path class="cls-1" d="M50,457.72c-9.42-6.63-17-26.52-14.89-34.32V423c7.6-19.89,29.17-52.65,88.71-98.28,0,0,2.13-17.55-8.81-15.21,0,0-77.47,59.28-84.46,114.27a44.91,44.91,0,0,0,0,15.6c0,.78.31,1.56.31,2.34a29.49,29.49,0,0,0,.91,3.9,1.54,1.54,0,0,0,.3.78c26.74,90.48,375.82,34.32,375.82,34.32l-3-22.62C186.75,504.91,87.71,484.24,50,457.72Z" transform="translate(-29.91 -109.58)"/><path class="cls-1" d="M550.07,553.21l-61.93-.13,15.17-92.83H457.58l-19.3,118.06c-1.61,9.87,2.31,14.68,12,14.7l93.27.2c9.67,0,15.16-4.77,16.77-14.64L562,567.9C563.65,558,559.73,553.23,550.07,553.21Z" transform="translate(-29.91 -109.58)"/><path class="cls-1" d="M730.23,576.5,710.39,460.23l-.31,0H670.72l1.25,18.5,4.4,37.08-36.84-.07,16.76-37.05c2.3-5,4.77-11.16,7.57-18.46h-40L566.14,576.16c-5,9.86-1.44,16.8,9,16.82l17.24,0c8.36,0,14.24-4,17.94-12.24l12.37-27.71,58.27.12,3.3,27.75c1.27,8.27,6.1,12.28,14.2,12.3l17.24,0C726.17,593.3,732,586.37,730.23,576.5Z" transform="translate(-29.91 -109.58)"/><path class="cls-1" d="M868.35,460.9l-5.23,32c-1.31,8-2.31,18.93-3.23,32.54h-.52l-1.48-5.34c-2-7.21-5.92-19.75-8.88-27.23l-13.33-32H756.56l-.34,0-19.4,118.73c-1.61,9.87,2.31,14.68,12,14.7l17,0c9.67,0,15.15-4.77,16.77-14.63l12.11-74.14c1.31-8,2.31-18.93,3.23-32.54h.52l1.48,5.34c2,7.21,5.92,19.76,8.88,27.23l33.35,79c2.56,6.67,7.79,9.89,15.37,9.9l20.38.05c9.66,0,15.15-4.77,16.76-14.64l19.46-119Z" transform="translate(-29.91 -109.58)"/><path class="cls-1" d="M1078.19,460.9h-52.54c5.71,9.18,7.57,21.91,5,37.89-5.89,36-27.92,55.7-60.06,55.63l-18.81,0L967,460.9H924.35a6.31,6.31,0,0,1-1.56-.22h-1.48L901.88,579.62c-1.62,9.86,2.3,14.67,12,14.69l52,.11c29.53.06,54.44-8.42,74.43-25.18,20.29-17,32.75-40.48,37.63-70.35Q1081.35,477.71,1078.19,460.9Z" transform="translate(-29.91 -109.58)"/><path class="cls-1" d="M1097.49,418.29c1.61-9.86,7.1-14.65,16.77-14.63l17,0c9.67,0,13.59,4.83,12,14.7l-26.36,161.33c-1.61,9.87-7.1,14.66-16.77,14.64l-17,0c-9.67,0-13.58-4.83-12-14.7Z" transform="translate(-29.91 -109.58)"/><path class="cls-1" d="M1150.36,418.27c1.61-9.87,7.1-14.66,16.76-14.64l20.38,0c7.84,0,13.06,3.23,15.63,9.91l33,79.29c3,7.48,6.92,20,8.88,27.23l1.48,5.34h.52c.92-13.6,1.92-24.54,3.23-32.54l12.15-74.4c1.61-9.87,7.1-14.66,16.77-14.64l17,0c9.67,0,13.59,4.83,12,14.7L1281.8,579.93c-1.61,9.87-7.1,14.66-16.76,14.64l-20.38-.05c-7.58,0-12.81-3.22-15.37-9.9l-33.35-79c-3-7.47-6.92-20-8.88-27.23l-1.48-5.33h-.52c-.92,13.61-1.92,24.54-3.23,32.54l-12.11,74.14c-1.62,9.86-7.1,14.65-16.77,14.63l-17,0c-9.67,0-13.59-4.83-12-14.7Z" transform="translate(-29.91 -109.58)"/><path class="cls-1" d="M1474.44,417.47c6.4,5.62,6.61,12.28.34,20.28l-8.58,10.91c-5.62,7.2-12.63,8.51-20.51,4-10.75-6.16-22-9.38-33.22-9.4-17.51,0-32,5.27-42.81,15.65s-17.38,23.17-19.9,38.63c-2.79,17.07.17,31,8.61,41.64,8.49,10.42,20.16,15.78,35.06,15.81,15.67,0,30.83-6.34,36.66-11.66l4.27-3.73,2.14-13.06-12,0c-9.67,0-13.59-4.83-12-14.7l1.7-10.4c1.62-9.86,7.1-14.65,16.77-14.63l38.15.08c9.66,0,13.58,4.83,12,14.69l-12.81,78.4c-1.61,9.87-7.1,14.66-16.77,14.64l-8.62,0c-9.14,0-13.59-4.83-12.5-11.5l.09-.53.7-2.67h-.52c-1.22,1.07-2.18,2.13-9.15,6.39a84.26,84.26,0,0,1-43.42,11.38c-25.08-.06-45.28-9.17-60.39-27.07s-20.42-41.39-15.67-70.46,17.77-52.78,39.37-71.41c21.65-18.89,46.69-28.18,75.16-28.12C1443,400.6,1465.25,409.72,1474.44,417.47Z" transform="translate(-29.91 -109.58)"/><path class="cls-1" d="M275.19,237.61a4.53,4.53,0,0,0-2.5-2.15c-10.94-2.9-40.62-7.85-78.08,9.67l-16.53,7.8-3.7-1.87a25.31,25.31,0,0,0-22.32-.83l-19.76,9.44a4,4,0,0,0-2.19,2.9,4,4,0,0,0,2,3.27l11.41,6.42a18.53,18.53,0,0,1,7.39,8l3.22,7.24L144.49,292a3.3,3.3,0,0,0-1.62,4.37l.06.13,2.58,5.64a3.67,3.67,0,0,0,4.89,1.58l9.67-4.54,3.22,7.23A16.73,16.73,0,0,1,164.67,317l-1.93,12.94a3.51,3.51,0,0,0,1.26,3.21,2.88,2.88,0,0,0,3.45.31L187.21,324a24.19,24.19,0,0,0,13.54-17.71l.72-3.8L218,294.7c37.08-17.55,52.52-43.59,57.27-53.6A3.72,3.72,0,0,0,275.19,237.61Zm-46.28,34.11a12.94,12.94,0,1,1,14-11.74A12.94,12.94,0,0,1,228.91,271.72Z" transform="translate(-29.91 -109.58)"/></svg>