<svg xmlns="http://www.w3.org/2000/svg" xmlns:xlink="http://www.w3.org/1999/xlink" width="1920.587" height="1012.248" viewBox="0 0 1920.587 1012.248"><defs><linearGradient id="a" x1="-0.304" y1="0.832" x2="0.867" y2="0.418" gradientUnits="objectBoundingBox"><stop offset="0" stop-color="#4f00bc"/><stop offset="1" stop-color="#29abe2"/></linearGradient><linearGradient id="b" x1="0.5" y1="0" x2="0.5" y2="1" xlink:href="#a"/></defs><g transform="translate(353.491 -41)"><text transform="translate(598 684)" fill="#452cc5" font-size="233" font-family="HelveticaNeueCyr-Bold, HelveticaNeueCyr" font-weight="700" letter-spacing="0.08em" opacity="0.05"><tspan x="-79.802" y="0">А</tspan></text><text transform="translate(634.879 637)" fill="#3574d5" font-size="50" font-family="HelveticaNeueCyr-Bold, HelveticaNeueCyr" font-weight="700" letter-spacing="0.08em" opacity="0.5"><tspan x="-15" y="0">+</tspan></text><text transform="translate(868 266)" fill="#452cc5" font-size="233" font-family="HelveticaNeueCyr-Bold, HelveticaNeueCyr" font-weight="700" letter-spacing="0.08em" opacity="0.05"><tspan x="-86.326" y="0">П</tspan></text><text transform="translate(816.879 131)" fill="#3574d5" font-size="50" font-family="HelveticaNeueCyr-Bold, HelveticaNeueCyr" font-weight="700" letter-spacing="0.08em" opacity="0.5"><tspan x="-15" y="0">+</tspan></text><text transform="translate(1088 710)" fill="#452cc5" font-size="233" font-family="HelveticaNeueCyr-Bold, HelveticaNeueCyr" font-weight="700" letter-spacing="0.08em" opacity="0.05"><tspan x="-105.665" y="0">Ы</tspan></text><text transform="translate(1011.879 703)" fill="#3574d5" font-size="50" font-family="HelveticaNeueCyr-Bold, HelveticaNeueCyr" font-weight="700" letter-spacing="0.08em" opacity="0.5"><tspan x="-15" y="0">+</tspan></text><text transform="translate(86 211)" fill="#4a14c0" font-size="233" font-family="HelveticaNeueCyr-Bold, HelveticaNeueCyr" font-weight="700" letter-spacing="0.08em" opacity="0.05"><tspan x="-86.326" y="0">Э</tspan></text><text transform="translate(127.879 188)" fill="#3574d5" font-size="50" font-family="HelveticaNeueCyr-Bold, HelveticaNeueCyr" font-weight="700" letter-spacing="0.08em" opacity="0.5"><tspan x="-15" y="0">+</tspan></text><g transform="translate(-353.267 -1095)"><path d="M-142.223,1217.318S478.965,1230.5,227.4,1491.741c-116.724,121.216,84.832,202.513,84.832,202.513s68.018,13.7,98.436,56.557c18.111,25.714,52.346,144.355-98.436,236.2S-142,2049.3-142,2049.3V1750.812Z" transform="translate(142 9.174)" fill="url(#a)"/><path d="M1876.124,1475.172s-102.925-51.588-184-45.34-151.232,35.29-210.284,110.046-55.533,263.928,43.036,366.9,300.705,108.729,351.243,44.985c-.107-54.9-.545-4.642,0-151.161S1876.124,1475.172,1876.124,1475.172Z" transform="translate(43.998 155)" fill="url(#b)"/></g><text transform="translate(111 814)" fill="#fff" font-size="233" font-family="HelveticaNeueCyr-Bold, HelveticaNeueCyr" font-weight="700" letter-spacing="0.08em" opacity="0.05"><tspan x="-71.182" y="0">Т</tspan></text><text transform="translate(160.879 676)" fill="#fff" font-size="50" font-family="HelveticaNeueCyr-Bold, HelveticaNeueCyr" font-weight="700" letter-spacing="0.08em" opacity="0.5"><tspan x="-15" y="0">+</tspan></text></g></svg>