<svg xmlns="http://www.w3.org/2000/svg" xmlns:xlink="http://www.w3.org/1999/xlink" viewBox="0 0 1923.122 1219.973"><defs><style>.a{fill:#3f4acd;}.a,.d,.f,.h{font-size:233px;opacity:0.05;}.a,.d,.e,.f,.g,.h{font-family:HelveticaNeueCyr-Bold, HelveticaNeueCyr;font-weight:700;letter-spacing:0.08em;}.b{fill:url(#a);}.c{fill:url(#c);}.d,.e{fill:#fff;}.e,.g{font-size:50px;opacity:0.5;}.f{fill:#452cc5;}.g{fill:#3574d5;}.h{fill:#4a14c0;}</style><linearGradient id="a" x1="0.5" x2="0.5" y2="1" gradientUnits="objectBoundingBox"><stop offset="0" stop-color="#4f00bc"/><stop offset="1" stop-color="#29abe2"/></linearGradient><linearGradient id="c" x1="-0.304" y1="0.832" x2="0.867" y2="0.418" xlink:href="#a"/></defs><g transform="translate(1 -1136)"><text class="a" transform="translate(1435.431 1805)"><tspan x="-105.665" y="0">Ы</tspan></text><path class="b" d="M1876.124,1475.172s-85.136-49.617-184-45.34-142.927,28.3-210.284,110.046-107.9,320.7,16.428,411.885,377.851,169.784,377.851,169.784Z" transform="translate(45.998 37)"/><path class="b" d="M1897.792,1479.989c-20.386-18-91.653-54.639-197.252-50.128s-195.914,72.426-225.852,108.471c-21.594,25.278-37.229,73.406-40.67,98.355-.86,27.53-3.971,50.3,19.854,96.621s79.041,64.942,120.123,75.2c65.52,16.366,141.211,0,141.211,0s117.7-26.7,181.873-106.618C1997.981,1576.233,1918.178,1497.993,1897.792,1479.989Z" transform="translate(-795.027 540.189)"/><path class="c" d="M-139,1217.374s622.328,13.134,369,274.542c-117.544,121.292,85.428,202.641,85.428,202.641s68.5,13.708,99.128,56.593c18.238,25.731,52.713,144.447-99.128,236.354S-138,2136.372-138,2136.372Z" transform="translate(138 9.174)"/><g transform="translate(353.267 1095)"><text class="d" transform="translate(111 814)"><tspan x="-71.182" y="0">Т</tspan></text><text class="e" transform="translate(160.879 676)"><tspan x="-15" y="0">+</tspan></text><text class="f" transform="translate(598 684)"><tspan x="-79.802" y="0">А</tspan></text><text class="g" transform="translate(634.879 637)"><tspan x="-15" y="0">+</tspan></text><text class="f" transform="translate(868 266)"><tspan x="-86.326" y="0">П</tspan></text><text class="g" transform="translate(816.879 131)"><tspan x="-15" y="0">+</tspan></text><text class="d" transform="translate(1088 710)"><tspan x="-105.665" y="0">Ы</tspan></text><text class="g" transform="translate(1011.879 703)"><tspan x="-15" y="0">+</tspan></text><text class="h" transform="translate(86 211)"><tspan x="-86.326" y="0">Э</tspan></text><text class="g" transform="translate(127.879 188)"><tspan x="-15" y="0">+</tspan></text></g></g></svg>