<svg xmlns="http://www.w3.org/2000/svg" xmlns:xlink="http://www.w3.org/1999/xlink" viewBox="0 0 1923.122 1220"><defs><style>.a,.b,.e{fill:#fff;}.b,.c,.d,.i{font-size:233px;opacity:0.05;}.b,.c,.d,.e,.f,.i{font-family:HelveticaNeueCyr-Bold, HelveticaNeueCyr;font-weight:700;letter-spacing:0.08em;}.c{fill:#452cc5;}.d{fill:#4a14c0;}.e,.f{font-size:50px;opacity:0.5;}.f{fill:#3574d5;}.g{fill:url(#a);}.h{fill:url(#c);}.i{fill:#3f4acd;}</style><linearGradient id="a" x1="0.5" x2="0.5" y2="1" gradientUnits="objectBoundingBox"><stop offset="0" stop-color="#4f00bc"/><stop offset="1" stop-color="#29abe2"/></linearGradient><linearGradient id="c" x1="-0.304" y1="0.832" x2="0.867" y2="0.418" xlink:href="#a"/></defs><g transform="translate(1 -1136)"><rect class="a" width="1920" height="1220" transform="translate(0 1136)"/><g transform="translate(353.267 1095)"><text class="b" transform="translate(111 814)"><tspan x="-71.182" y="0">Т</tspan></text><text class="c" transform="translate(598 684)"><tspan x="-79.802" y="0">А</tspan></text><text class="c" transform="translate(868 266)"><tspan x="-86.326" y="0">П</tspan></text><text class="d" transform="translate(86 211)"><tspan x="-86.326" y="0">Э</tspan></text></g><g transform="translate(466.146 1181)"><text class="e" transform="translate(48 590)"><tspan x="-15" y="0">+</tspan></text><text class="f" transform="translate(15 102)"><tspan x="-15" y="0">+</tspan></text><text class="f" transform="translate(704 45)"><tspan x="-15" y="0">+</tspan></text><text class="f" transform="translate(522 551)"><tspan x="-15" y="0">+</tspan></text><text class="f" transform="translate(899 617)"><tspan x="-15" y="0">+</tspan></text></g><path class="g" d="M1876.124,1475.172s-85.136-49.617-184-45.34-142.927,28.3-210.284,110.046-107.9,320.7,16.428,411.885,377.851,169.784,377.851,169.784Z" transform="translate(45.998 37)"/><path class="g" d="M1897.792,1479.989c-20.386-18-91.653-54.639-197.252-50.128s-195.914,72.426-225.852,108.471c-21.594,25.278-37.229,73.406-40.67,98.355-.86,27.53-3.971,50.3,19.854,96.621s79.041,64.942,120.123,75.2c65.52,16.366,141.211,0,141.211,0s117.7-26.7,181.873-106.618C1997.981,1576.233,1918.178,1497.993,1897.792,1479.989Z" transform="translate(-795.027 540.189)"/><path class="h" d="M-139,1217.374s622.328,13.134,369,274.542c-117.544,121.292,85.428,202.641,85.428,202.641s68.5,13.708,99.128,56.593c18.238,25.731,52.713,144.447-99.128,236.354S-138,2136.372-138,2136.372Z" transform="translate(138 9.174)"/><text class="b" transform="translate(1441.267 1805)"><tspan x="-105.665" y="0">Ы</tspan></text><text class="i" transform="translate(1435.431 1805)"><tspan x="-105.665" y="0">Ы</tspan></text></g></svg>