<svg xmlns="http://www.w3.org/2000/svg" xmlns:xlink="http://www.w3.org/1999/xlink" viewBox="0 0 1920.44 647.24"><defs><style>.a{fill:#fff;}.b{stroke:#707070;fill:url(#a);}</style><linearGradient id="a" x1="0.5" x2="0.5" y2="1" gradientUnits="objectBoundingBox"><stop offset="0" stop-color="#4f00bc"/><stop offset="1" stop-color="#29abe2"/></linearGradient></defs><g transform="translate(-10.672 -4011)"><rect class="a" width="1920" height="647" transform="translate(11.112 4011)"/><path class="b" d="M1888.923,1655.123c-12.71-12.217-40.625-53.209-136.1-48.608-72.171,3.906-137.252,60.335-210.649,142.483s-88.753,136.375-82.942,186.106c7.955,68.086-3.959,105.417,100.282,201.04,78.39,71.91,176.473,70.589,176.473,70.589s95.1.49,109.806-47.06-73.231-85.057-47.059-127.453,110.941-12.732,151.747-42.129,15.389-102.912,0-186.654S1889,1692.416,1888.923,1655.123Z" transform="translate(-1447.002 2451)"/></g></svg>